<?xml version="1.0" encoding="UTF-8"?>
<svg xmlns="http://www.w3.org/2000/svg" xmlns:xlink="http://www.w3.org/1999/xlink" width="40pt" height="40pt" viewBox="0 0 40 40" version="1.1">
<g id="surface1">
<path style=" stroke:none;fill-rule:nonzero;fill:rgb(21.960784%,16.862745%,45.098039%);fill-opacity:1;" d="M 40 20 C 40 31.046875 31.046875 40 20 40 C 8.953125 40 0 31.046875 0 20 C 0 8.953125 8.953125 0 20 0 C 31.046875 0 40 8.953125 40 20 Z M 40 20 "/>
<path style=" stroke:none;fill-rule:nonzero;fill:rgb(27.843137%,18.823529%,50.196078%);fill-opacity:1;" d="M 37.304688 20 C 37.304688 29.554688 29.554688 37.304688 20 37.304688 C 10.445312 37.304688 2.695312 29.554688 2.695312 20 C 2.695312 10.445312 10.445312 2.695312 20 2.695312 C 29.554688 2.695312 37.304688 10.445312 37.304688 20 Z M 37.304688 20 "/>
<path style=" stroke:none;fill-rule:nonzero;fill:rgb(21.960784%,16.862745%,45.098039%);fill-opacity:1;" d="M 28.074219 16.476562 L 28.074219 15.777344 C 28.074219 15.351562 27.730469 15.007812 27.304688 15.007812 L 26.757812 15.007812 L 26.757812 9.679688 C 26.757812 9.289062 26.445312 8.976562 26.058594 8.976562 L 13.941406 8.976562 C 13.554688 8.976562 13.242188 9.289062 13.242188 9.679688 L 13.242188 15.007812 L 12.824219 15.007812 C 12.398438 15.007812 12.054688 15.351562 12.054688 15.777344 L 12.054688 16.476562 L 11.03125 20.113281 L 11.03125 21.585938 C 11.03125 22.246094 11.390625 22.824219 11.925781 23.132812 L 11.925781 32.210938 C 11.925781 32.851562 12.441406 33.367188 13.082031 33.367188 L 26.917969 33.367188 C 27.558594 33.367188 28.074219 32.851562 28.074219 32.210938 L 28.074219 23.132812 C 28.609375 22.824219 28.96875 22.246094 28.96875 21.585938 L 28.96875 20.113281 Z M 28.074219 16.476562 "/>
<path style=" stroke:none;fill-rule:nonzero;fill:rgb(100%,100%,100%);fill-opacity:1;" d="M 28.074219 19.261719 L 11.925781 19.261719 L 11.925781 31.039062 C 11.925781 31.679688 12.441406 32.195312 13.082031 32.195312 L 26.917969 32.195312 C 27.558594 32.195312 28.074219 31.679688 28.074219 31.039062 Z M 28.074219 19.261719 "/>
<path style=" stroke:none;fill-rule:nonzero;fill:rgb(10.980392%,68.235294%,89.411765%);fill-opacity:1;" d="M 17.550781 23.605469 L 14.921875 23.605469 C 14.28125 23.605469 13.761719 24.125 13.761719 24.765625 L 13.761719 32.195312 L 18.710938 32.195312 L 18.710938 24.765625 C 18.710938 24.125 18.191406 23.605469 17.550781 23.605469 Z M 17.550781 23.605469 "/>
<path style=" stroke:none;fill-rule:nonzero;fill:rgb(10.980392%,68.235294%,89.411765%);fill-opacity:1;" d="M 25.078125 23.605469 L 21.171875 23.605469 C 20.53125 23.605469 20.011719 24.125 20.011719 24.765625 L 20.011719 27.878906 C 20.011719 28.089844 20.183594 28.261719 20.398438 28.261719 L 25.851562 28.261719 C 26.066406 28.261719 26.238281 28.089844 26.238281 27.878906 L 26.238281 24.765625 C 26.238281 24.125 25.71875 23.605469 25.078125 23.605469 Z M 25.078125 23.605469 "/>
<path style=" stroke:none;fill-rule:nonzero;fill:rgb(0%,60.392157%,86.666667%);fill-opacity:1;" d="M 12.828125 22.207031 C 11.835938 22.207031 11.03125 21.402344 11.03125 20.414062 L 11.03125 18.941406 L 14.621094 18.941406 L 14.621094 20.414062 C 14.621094 21.402344 13.816406 22.207031 12.828125 22.207031 Z M 12.828125 22.207031 "/>
<path style=" stroke:none;fill-rule:nonzero;fill:rgb(0%,60.392157%,86.666667%);fill-opacity:1;" d="M 16.414062 22.207031 C 15.421875 22.207031 14.621094 21.402344 14.621094 20.414062 L 14.621094 18.941406 L 18.207031 18.941406 L 18.207031 20.414062 C 18.207031 21.402344 17.402344 22.207031 16.414062 22.207031 Z M 16.414062 22.207031 "/>
<path style=" stroke:none;fill-rule:nonzero;fill:rgb(0%,60.392157%,86.666667%);fill-opacity:1;" d="M 20 22.207031 C 19.007812 22.207031 18.207031 21.402344 18.207031 20.414062 L 18.207031 18.941406 L 21.792969 18.941406 L 21.792969 20.414062 C 21.792969 21.402344 20.992188 22.207031 20 22.207031 Z M 20 22.207031 "/>
<path style=" stroke:none;fill-rule:nonzero;fill:rgb(0%,60.392157%,86.666667%);fill-opacity:1;" d="M 23.585938 22.207031 C 22.597656 22.207031 21.792969 21.402344 21.792969 20.414062 L 21.792969 18.941406 L 25.378906 18.941406 L 25.378906 20.414062 C 25.378906 21.402344 24.578125 22.207031 23.585938 22.207031 Z M 23.585938 22.207031 "/>
<path style=" stroke:none;fill-rule:nonzero;fill:rgb(0%,60.392157%,86.666667%);fill-opacity:1;" d="M 27.171875 22.207031 C 26.183594 22.207031 25.378906 21.402344 25.378906 20.414062 L 25.378906 18.941406 L 28.96875 18.941406 L 28.96875 20.414062 C 28.964844 21.402344 28.164062 22.207031 27.171875 22.207031 Z M 27.171875 22.207031 "/>
<path style=" stroke:none;fill-rule:nonzero;fill:rgb(10.980392%,68.235294%,89.411765%);fill-opacity:1;" d="M 28.074219 15.304688 L 12.054688 15.304688 L 11.03125 18.941406 L 28.964844 18.941406 Z M 28.074219 15.304688 "/>
<path style=" stroke:none;fill-rule:nonzero;fill:rgb(0%,60.392157%,86.666667%);fill-opacity:1;" d="M 27.304688 13.832031 L 12.824219 13.832031 C 12.398438 13.832031 12.054688 14.179688 12.054688 14.605469 L 12.054688 15.304688 L 28.074219 15.304688 L 28.074219 14.605469 C 28.074219 14.179688 27.730469 13.832031 27.304688 13.832031 Z M 27.304688 13.832031 "/>
<path style=" stroke:none;fill-rule:nonzero;fill:rgb(0%,60.392157%,86.666667%);fill-opacity:1;" d="M 26.238281 27.1875 L 20.011719 27.1875 L 20.011719 27.878906 C 20.011719 28.089844 20.183594 28.261719 20.398438 28.261719 L 25.851562 28.261719 C 26.066406 28.261719 26.238281 28.089844 26.238281 27.878906 Z M 26.238281 27.1875 "/>
<path style=" stroke:none;fill-rule:nonzero;fill:rgb(0%,60.392157%,86.666667%);fill-opacity:1;" d="M 18.136719 28.261719 C 18.136719 28.503906 17.941406 28.703125 17.699219 28.703125 C 17.457031 28.703125 17.261719 28.503906 17.261719 28.261719 C 17.261719 28.019531 17.457031 27.824219 17.699219 27.824219 C 17.941406 27.824219 18.136719 28.019531 18.136719 28.261719 Z M 18.136719 28.261719 "/>
<path style=" stroke:none;fill-rule:nonzero;fill:rgb(100%,100%,100%);fill-opacity:1;" d="M 17.378906 26.808594 L 15.09375 26.808594 C 14.988281 26.808594 14.898438 26.722656 14.898438 26.613281 L 14.898438 25.570312 C 14.898438 25.460938 14.988281 25.375 15.09375 25.375 L 17.378906 25.375 C 17.484375 25.375 17.570312 25.460938 17.570312 25.570312 L 17.570312 26.613281 C 17.570312 26.722656 17.484375 26.808594 17.378906 26.808594 Z M 17.378906 26.808594 "/>
<path style=" stroke:none;fill-rule:nonzero;fill:rgb(100%,100%,100%);fill-opacity:1;" d="M 17.257812 25.789062 C 17.203125 25.789062 17.148438 25.769531 17.101562 25.734375 L 16.234375 25.050781 L 15.371094 25.734375 C 15.261719 25.820312 15.101562 25.800781 15.015625 25.691406 C 14.929688 25.582031 14.949219 25.425781 15.058594 25.339844 L 16.082031 24.535156 C 16.171875 24.464844 16.300781 24.464844 16.390625 24.535156 L 17.414062 25.339844 C 17.523438 25.425781 17.542969 25.582031 17.457031 25.691406 C 17.40625 25.753906 17.332031 25.789062 17.257812 25.789062 Z M 17.257812 25.789062 "/>
<path style=" stroke:none;fill-rule:nonzero;fill:rgb(81.960784%,82.745098%,83.137255%);fill-opacity:1;" d="M 26.058594 17.445312 L 20 17.445312 L 20 8.449219 L 26.058594 8.449219 C 26.445312 8.449219 26.757812 8.761719 26.757812 9.148438 L 26.757812 16.742188 C 26.757812 17.132812 26.445312 17.445312 26.058594 17.445312 Z M 26.058594 17.445312 "/>
<path style=" stroke:none;fill-rule:nonzero;fill:rgb(100%,100%,100%);fill-opacity:1;" d="M 26.058594 16.800781 L 20 16.800781 L 20 7.804688 L 26.058594 7.804688 C 26.445312 7.804688 26.757812 8.117188 26.757812 8.503906 L 26.757812 16.101562 C 26.757812 16.488281 26.445312 16.800781 26.058594 16.800781 Z M 26.058594 16.800781 "/>
<path style=" stroke:none;fill-rule:nonzero;fill:rgb(81.960784%,82.745098%,83.137255%);fill-opacity:1;" d="M 25.300781 12.609375 L 21.46875 12.609375 C 21.257812 12.609375 21.085938 12.460938 21.085938 12.28125 C 21.085938 12.097656 21.257812 11.949219 21.46875 11.949219 L 25.300781 11.949219 C 25.511719 11.949219 25.683594 12.097656 25.683594 12.28125 C 25.683594 12.460938 25.511719 12.609375 25.300781 12.609375 Z M 25.300781 12.609375 "/>
<path style=" stroke:none;fill-rule:nonzero;fill:rgb(81.960784%,82.745098%,83.137255%);fill-opacity:1;" d="M 25.300781 14.140625 L 21.46875 14.140625 C 21.257812 14.140625 21.085938 13.992188 21.085938 13.808594 C 21.085938 13.625 21.257812 13.476562 21.46875 13.476562 L 25.300781 13.476562 C 25.511719 13.476562 25.683594 13.625 25.683594 13.808594 C 25.683594 13.992188 25.511719 14.140625 25.300781 14.140625 Z M 25.300781 14.140625 "/>
<path style=" stroke:none;fill-rule:nonzero;fill:rgb(81.960784%,82.745098%,83.137255%);fill-opacity:1;" d="M 25.300781 9.816406 L 21.46875 9.816406 C 21.257812 9.816406 21.085938 9.667969 21.085938 9.484375 C 21.085938 9.300781 21.257812 9.15625 21.46875 9.15625 L 25.300781 9.15625 C 25.511719 9.15625 25.683594 9.300781 25.683594 9.484375 C 25.683594 9.667969 25.511719 9.816406 25.300781 9.816406 Z M 25.300781 9.816406 "/>
<path style=" stroke:none;fill-rule:nonzero;fill:rgb(81.960784%,82.745098%,83.137255%);fill-opacity:1;" d="M 25.300781 15.667969 L 21.46875 15.667969 C 21.257812 15.667969 21.085938 15.519531 21.085938 15.335938 C 21.085938 15.152344 21.257812 15.007812 21.46875 15.007812 L 25.300781 15.007812 C 25.511719 15.007812 25.683594 15.152344 25.683594 15.335938 C 25.683594 15.519531 25.511719 15.667969 25.300781 15.667969 Z M 25.300781 15.667969 "/>
<path style=" stroke:none;fill-rule:nonzero;fill:rgb(73.72549%,74.509804%,75.294118%);fill-opacity:1;" d="M 13.941406 17.445312 L 20 17.445312 L 20 8.449219 L 13.941406 8.449219 C 13.554688 8.449219 13.242188 8.761719 13.242188 9.148438 L 13.242188 16.742188 C 13.242188 17.132812 13.554688 17.445312 13.941406 17.445312 Z M 13.941406 17.445312 "/>
<path style=" stroke:none;fill-rule:nonzero;fill:rgb(90.196078%,90.588235%,90.980392%);fill-opacity:1;" d="M 13.941406 16.800781 L 20 16.800781 L 20 7.804688 L 13.941406 7.804688 C 13.554688 7.804688 13.242188 8.117188 13.242188 8.503906 L 13.242188 16.101562 C 13.242188 16.488281 13.554688 16.800781 13.941406 16.800781 Z M 13.941406 16.800781 "/>
<path style=" stroke:none;fill-rule:nonzero;fill:rgb(73.72549%,74.509804%,75.294118%);fill-opacity:1;" d="M 14.699219 12.609375 L 18.53125 12.609375 C 18.742188 12.609375 18.914062 12.460938 18.914062 12.28125 C 18.914062 12.097656 18.742188 11.949219 18.53125 11.949219 L 14.699219 11.949219 C 14.488281 11.949219 14.316406 12.097656 14.316406 12.28125 C 14.316406 12.460938 14.488281 12.609375 14.699219 12.609375 Z M 14.699219 12.609375 "/>
<path style=" stroke:none;fill-rule:nonzero;fill:rgb(73.72549%,74.509804%,75.294118%);fill-opacity:1;" d="M 14.699219 14.140625 L 18.53125 14.140625 C 18.742188 14.140625 18.914062 13.992188 18.914062 13.808594 C 18.914062 13.625 18.742188 13.476562 18.53125 13.476562 L 14.699219 13.476562 C 14.488281 13.476562 14.316406 13.625 14.316406 13.808594 C 14.316406 13.992188 14.488281 14.140625 14.699219 14.140625 Z M 14.699219 14.140625 "/>
<path style=" stroke:none;fill-rule:nonzero;fill:rgb(73.72549%,74.509804%,75.294118%);fill-opacity:1;" d="M 14.699219 15.667969 L 18.53125 15.667969 C 18.742188 15.667969 18.914062 15.519531 18.914062 15.335938 C 18.914062 15.152344 18.742188 15.007812 18.53125 15.007812 L 14.699219 15.007812 C 14.488281 15.007812 14.316406 15.152344 14.316406 15.335938 C 14.316406 15.519531 14.488281 15.667969 14.699219 15.667969 Z M 14.699219 15.667969 "/>
<path style=" stroke:none;fill-rule:nonzero;fill:rgb(73.72549%,74.509804%,75.294118%);fill-opacity:1;" d="M 14.597656 8.84375 L 18.632812 8.84375 C 18.785156 8.84375 18.914062 8.972656 18.914062 9.125 L 18.914062 10.507812 C 18.914062 10.660156 18.785156 10.789062 18.632812 10.789062 L 14.597656 10.789062 C 14.441406 10.789062 14.316406 10.660156 14.316406 10.507812 L 14.316406 9.125 C 14.316406 8.972656 14.441406 8.84375 14.597656 8.84375 Z M 14.597656 8.84375 "/>
<path style=" stroke:none;fill-rule:nonzero;fill:rgb(73.72549%,74.509804%,75.294118%);fill-opacity:1;" d="M 25.632812 11.066406 L 25.125 10.542969 C 25.035156 10.449219 24.886719 10.449219 24.796875 10.542969 L 24.289062 11.066406 C 24.21875 11.140625 24.09375 11.089844 24.09375 10.988281 L 24.09375 8.234375 L 25.832031 8.234375 L 25.832031 10.988281 C 25.832031 11.089844 25.707031 11.140625 25.632812 11.066406 Z M 25.632812 11.066406 "/>
<path style=" stroke:none;fill-rule:nonzero;fill:rgb(93.72549%,35.294118%,61.568627%);fill-opacity:1;" d="M 25.632812 10.636719 L 25.125 10.113281 C 25.035156 10.019531 24.886719 10.019531 24.796875 10.113281 L 24.289062 10.636719 C 24.21875 10.710938 24.09375 10.660156 24.09375 10.558594 L 24.09375 7.804688 L 25.832031 7.804688 L 25.832031 10.558594 C 25.832031 10.660156 25.707031 10.710938 25.632812 10.636719 Z M 25.632812 10.636719 "/>
</g>
</svg>
